<svg xmlns="http://www.w3.org/2000/svg" viewBox="0 0 15.95 9.81"><defs><style>.cls-1{fill:#ffcb08;}</style></defs><title>logo-go</title><g id="Layer_2" data-name="Layer 2"><g id="Layer_1-2" data-name="Layer 1"><path class="cls-1" d="M7.15,5.86A5.19,5.19,0,0,1,5.63,8.73,3.91,3.91,0,0,1,2.88,9.81,2.75,2.75,0,0,1,.72,9,3.53,3.53,0,0,1,0,6.59,7.65,7.65,0,0,1,.72,3.46,7.43,7.43,0,0,1,2.56.86,2.37,2.37,0,0,1,4.15.2,4,4,0,0,1,5.55.55q1.07.42,1.07.93a.61.61,0,0,1-.18.43A.56.56,0,0,1,6,2.1.78.78,0,0,1,5.66,2a3.09,3.09,0,0,0-1.51-.54,1.38,1.38,0,0,0-.92.46,7.28,7.28,0,0,0-.69.83A6.33,6.33,0,0,0,1.18,6.59a2.6,2.6,0,0,0,.34,1.54,1.63,1.63,0,0,0,1.36.48,2.71,2.71,0,0,0,1.82-.66,3.75,3.75,0,0,0,1.14-2,7.4,7.4,0,0,0-2.78.63.61.61,0,0,1-.26.06.54.54,0,0,1-.43-.2A.62.62,0,0,1,2.21,6a.59.59,0,0,1,.31-.52,8.91,8.91,0,0,1,4.37-.77.57.57,0,0,1,.42.17.58.58,0,0,1,.17.43A.57.57,0,0,1,7.15,5.86Z"/><path class="cls-1" d="M10.71,9.75A2.28,2.28,0,0,1,9,9a3.12,3.12,0,0,1-.83-2.17,3.79,3.79,0,0,1,.67-2.33,2.62,2.62,0,0,1,2.29-1.19A1.93,1.93,0,0,1,12.91,4.4a4.12,4.12,0,0,1,.46,2.09,3.79,3.79,0,0,1-.68,2.22A2.33,2.33,0,0,1,10.71,9.75Zm.35-5.23a1.47,1.47,0,0,0-1.34.82,3,3,0,0,0-.38,1.51A1.82,1.82,0,0,0,9.8,8.17a1.23,1.23,0,0,0,.91.39,1.42,1.42,0,0,0,1-.45,1.88,1.88,0,0,0,.53-1.33Q12.36,4.52,11.06,4.52Z"/><path class="cls-1" d="M15.95,9.27a.48.48,0,0,1-.17.37.54.54,0,0,1-.38.16.63.63,0,0,1-.47-.3A.88.88,0,0,1,14.71,9a.48.48,0,0,1,.17-.36.55.55,0,0,1,.38-.15.64.64,0,0,1,.47.3A.88.88,0,0,1,15.95,9.27Zm0-8.75V7a.52.52,0,0,1-1,0q0-.24,0-.72t0-.71q0-.85,0-2.55t0-2.55a.52.52,0,0,1,1,0Z"/></g></g></svg>