<?xml version="1.0" encoding="utf-8"?>
<!-- Generator: Adobe Illustrator 20.1.0, SVG Export Plug-In . SVG Version: 6.00 Build 0)  -->
<svg version="1.1" id="Layer_1" xmlns="http://www.w3.org/2000/svg" xmlns:xlink="http://www.w3.org/1999/xlink" x="0px" y="0px"
	 viewBox="0 0 69.3 15" style="enable-background:new 0 0 69.3 15;" xml:space="preserve">
<style type="text/css">
	.st0{fill:#090A3C;}
</style>
<title>atlas-logo-blue</title>
<g id="Layer_2">
	<g id="Layer_1-2">
		<polygon class="st0" points="19.1,15 19.1,3.6 15.5,3.6 15.5,0 26.7,0 26.7,3.6 23.1,3.6 23.1,15 		"/>
		<polygon class="st0" points="30,15 30,0 33.9,0 33.9,11.3 39.7,11.3 39.7,15 		"/>
		<path class="st0" d="M64.1,15c-2,0-3.8-0.8-5.3-2.2l-0.4-0.4l2.6-2.7l0.4,0.5c0.7,0.7,1.6,1.2,2.6,1.2c0.8,0,1.3-0.4,1.3-1
			c0-0.8-0.8-1.1-2.1-1.5c-0.6-0.2-1.3-0.5-1.9-0.9c-1.4-0.7-2.2-2.1-2.2-3.6c0-2.8,2.6-4.4,5-4.4c1.5,0,3.1,0.5,4.3,1.4l0.5,0.3
			l-2.1,3.1l-0.5-0.5c-0.6-0.5-1.2-0.7-2-0.8c-0.5,0-1.4,0.2-1.4,0.8s1,0.8,1.9,1.2c1.9,0.8,4.3,1.8,4.3,4.8
			C69.2,13,66.9,15.1,64.1,15C64.2,15,64.1,15,64.1,15"/>
		<polygon class="st0" points="0,15 4.6,15 7.9,8.6 11.4,15 16,15 7.9,0 		"/>
		<polygon class="st0" points="49.4,8.6 52.8,15 57.4,15 49.4,0 41.4,15 46,15 		"/>
	</g>
</g>
</svg>
